<?xml version="1.0" encoding="utf-8"?>
<!-- Generator: Adobe Illustrator 22.1.0, SVG Export Plug-In . SVG Version: 6.00 Build 0)  -->
<svg version="1.1" id="Layer_1" xmlns="http://www.w3.org/2000/svg" xmlns:xlink="http://www.w3.org/1999/xlink" x="0px" y="0px"
	 viewBox="0 0 80 80" style="enable-background:new 0 0 80 80;" xml:space="preserve">
<style type="text/css">
	.st0{fill:#EBEBEB;}
</style>
<g id="Layer_1_1_">
	<path class="st0" d="M25.4,39.8c0-7.9,6.4-14.5,14.5-14.5c7.9,0,14.5,6.6,14.5,14.5S48,54.3,39.9,54.3C32,54.3,25.4,47.8,25.4,39.8
		L25.4,39.8z M54.8,11.7H25c-7.3,0-13.4,5.9-13.4,13.4v29.9c0,7.3,6.1,13.4,13.4,13.4h29.9c7.3,0,13.4-6.1,13.4-13.4v-30
		C68.2,17.6,62.1,11.7,54.8,11.7L54.8,11.7z M25,15h29.9c5.5,0,10.1,4.4,10.1,10.1v29.9c0,5.5-4.4,10.1-10.1,10.1H25
		c-5.5,0-10.1-4.4-10.1-10.1v-30C15.1,19.4,19.5,15,25,15L25,15z M57.7,19.1c-1.7,0-2.9,1.4-2.9,2.9c0,1.7,1.4,2.9,2.9,2.9
		c1.7,0,2.9-1.4,2.9-2.9C60.8,20.5,59.4,19.1,57.7,19.1L57.7,19.1z M58.2,39.8c0-10.1-8.1-18.3-18.3-18.3
		c-10.1,0-18.3,8.2-18.3,18.3s8.2,18.3,18.3,18.3S58.2,49.9,58.2,39.8L58.2,39.8z"/>
</g>
<g id="Layer_2_1_">
</g>
</svg>
