<?xml version="1.0" encoding="utf-8"?>
<!-- Generator: Adobe Illustrator 22.1.0, SVG Export Plug-In . SVG Version: 6.00 Build 0)  -->
<svg version="1.1" id="Layer_1" xmlns="http://www.w3.org/2000/svg" xmlns:xlink="http://www.w3.org/1999/xlink" x="0px" y="0px"
	 viewBox="0 0 80 80" style="enable-background:new 0 0 80 80;" xml:space="preserve">
<style type="text/css">
	.st0{fill:#EBEBEB;}
</style>
<g id="Layer_2_1_">
</g>
<g id="Layer_2_2_">
</g>
<path class="st0" d="M72.9,23.6c0.5-1.5,0-2.7-2.3-2.7h-7.5c-2,0-2.7,1.1-3.2,2.1c0,0-3.8,9.3-9.3,15.4c-1.8,1.8-2.6,2.3-3.5,2.3
	c-0.5,0-1.2-0.6-1.2-2.1v-15c0-2-0.6-2.7-2.1-2.7H31.8c-1.2,0-2,0.9-2,1.7c0,1.8,2.7,2.3,3.1,7.3V41c0,2.4-0.5,2.9-1.4,2.9
	c-2.6,0-8.9-9.5-12.5-20.2c-0.8-2.1-1.5-2.9-3.4-2.9H8.1c-2.1,0-2.6,1.1-2.6,2.1c0,2,2.6,11.9,11.9,25c6.3,9,15,13.9,23.1,13.9
	c4.7,0,5.3-1.1,5.3-2.9c0-8.6-0.5-9.3,2-9.3c1.1,0,3.1,0.6,7.5,4.9c5.2,5.2,6,7.5,8.9,7.5h7.5c2.1,0,3.2-1.1,2.6-3.2
	c-1.4-4.4-11.1-13.7-11.6-14.4c-1.1-1.4-0.8-2.1,0-3.4C62.7,41,72,28,72.9,23.6L72.9,23.6z"/>
</svg>
