<?xml version="1.0" encoding="utf-8"?>
<!-- Generator: Adobe Illustrator 22.1.0, SVG Export Plug-In . SVG Version: 6.00 Build 0)  -->
<svg version="1.1" id="Layer_1" xmlns="http://www.w3.org/2000/svg" xmlns:xlink="http://www.w3.org/1999/xlink" x="0px" y="0px"
	 viewBox="0 0 80 80" style="enable-background:new 0 0 80 80;" xml:space="preserve">
<style type="text/css">
	.st0{fill:#EBEBEB;}
</style>
<g id="Layer_2_1_">
</g>
<g id="Layer_1_2_">
	<g>
		<path class="st0" d="M70.7,24.6c-0.7-2.8-2.9-4.9-5.7-5.7c-4.9-1.5-25-1.5-25-1.5s-20.1,0-25,1.3c-2.8,0.7-4.9,2.9-5.7,5.7
			C8,29.5,8,40,8,40s0,10.5,1.3,15.6c0.7,2.8,2.9,4.9,5.7,5.7c4.9,1.3,25,1.3,25,1.3s20.1,0,25-1.3c2.8-0.7,4.9-2.9,5.7-5.7
			C72,50.6,72,40,72,40S72,29.5,70.7,24.6z M33.5,49.6V30.5L50.2,40L33.5,49.6L33.5,49.6z"/>
	</g>
</g>
<g id="Layer_2_2_">
</g>
</svg>
